<svg xmlns="http://www.w3.org/2000/svg" viewBox="0 0 328 70" fill="none">
<path d="M327.157 17.4382V24.0455H318.186V51.2942H309.939V24.0455H300.969V17.4382H327.157Z" fill="#181818"/>
<path d="M288.605 51.2942L281.564 38.5138H279.587V51.2942H271.34V17.4382H285.181C287.85 17.4382 290.117 17.9044 291.981 18.8368C293.878 19.7692 295.293 21.0553 296.225 22.6951C297.158 24.3027 297.624 26.1032 297.624 28.0966C297.624 30.3472 296.981 32.3567 295.695 34.1251C294.441 35.8935 292.576 37.1474 290.101 37.8869L297.913 51.2942H288.605ZM279.587 32.6783H284.699C286.21 32.6783 287.335 32.3085 288.075 31.569C288.847 30.8295 289.232 29.7846 289.232 28.4342C289.232 27.1481 288.847 26.1353 288.075 25.3958C287.335 24.6563 286.21 24.2866 284.699 24.2866H279.587V32.6783Z" fill="#181818"/>
<path d="M249.442 51.6317C246.258 51.6317 243.333 50.8922 240.664 49.4132C238.028 47.9342 235.922 45.8765 234.346 43.24C232.803 40.5714 232.031 37.5813 232.031 34.2696C232.031 30.958 232.803 27.9839 234.346 25.3475C235.922 22.711 238.028 20.6533 240.664 19.1743C243.333 17.6953 246.258 16.9558 249.442 16.9558C252.625 16.9558 255.534 17.6953 258.171 19.1743C260.839 20.6533 262.929 22.711 264.44 25.3475C265.984 27.9839 266.755 30.958 266.755 34.2696C266.755 37.5813 265.984 40.5714 264.44 43.24C262.897 45.8765 260.807 47.9342 258.171 49.4132C255.534 50.8922 252.625 51.6317 249.442 51.6317ZM249.442 44.1081C252.142 44.1081 254.296 43.2079 255.904 41.4074C257.544 39.6069 258.364 37.2276 258.364 34.2696C258.364 31.2795 257.544 28.9003 255.904 27.1319C254.296 25.3314 252.142 24.4311 249.442 24.4311C246.709 24.4311 244.522 25.3153 242.883 27.0837C241.275 28.852 240.471 31.2474 240.471 34.2696C240.471 37.2598 241.275 39.6551 242.883 41.4556C244.522 43.224 246.709 44.1081 249.442 44.1081Z" fill="#181818"/>
<path d="M216.004 51.6317C213.528 51.6317 211.309 51.2298 209.348 50.426C207.387 49.6222 205.811 48.4326 204.622 46.8571C203.464 45.2817 202.853 43.3847 202.789 41.1662H211.567C211.695 42.4202 212.129 43.3847 212.869 44.0599C213.608 44.703 214.573 45.0245 215.762 45.0245C216.984 45.0245 217.949 44.7512 218.656 44.2046C219.363 43.6259 219.717 42.8381 219.717 41.8414C219.717 41.0055 219.428 40.3142 218.849 39.7676C218.302 39.221 217.611 38.7709 216.775 38.4172C215.971 38.0636 214.814 37.6617 213.303 37.2115C211.116 36.5364 209.332 35.8612 207.949 35.186C206.567 34.5108 205.377 33.5141 204.381 32.1958C203.384 30.8776 202.886 29.1575 202.886 27.0354C202.886 23.8846 204.027 21.4249 206.31 19.6566C208.592 17.8561 211.567 16.9558 215.232 16.9558C218.962 16.9558 221.968 17.8561 224.25 19.6566C226.533 21.4249 227.755 23.9006 227.916 27.0837H218.994C218.929 25.9905 218.527 25.1385 217.788 24.5276C217.048 23.8846 216.1 23.563 214.943 23.563C213.946 23.563 213.142 23.8363 212.531 24.3829C211.92 24.8973 211.615 25.6529 211.615 26.6496C211.615 27.7428 212.129 28.5948 213.158 29.2057C214.187 29.8166 215.795 30.4757 217.981 31.1831C220.167 31.9225 221.936 32.6299 223.286 33.3051C224.668 33.9803 225.858 34.9609 226.855 36.247C227.852 37.5331 228.35 39.1889 228.35 41.2145C228.35 43.1436 227.852 44.8959 226.855 46.4713C225.89 48.0468 224.476 49.3007 222.611 50.2331C220.746 51.1655 218.544 51.6317 216.004 51.6317Z" fill="#181818"/>
<path d="M199.462 28.3377C199.462 30.299 199.012 32.0995 198.112 33.7393C197.211 35.3469 195.829 36.649 193.964 37.6457C192.099 38.6424 189.784 39.1408 187.019 39.1408H181.907V51.2942H173.66V17.4382H187.019C189.72 17.4382 192.003 17.9044 193.868 18.8368C195.732 19.7692 197.131 21.0553 198.063 22.6951C198.996 24.3348 199.462 26.2157 199.462 28.3377ZM186.392 32.5818C187.968 32.5818 189.141 32.2121 189.913 31.4726C190.685 30.7331 191.07 29.6881 191.07 28.3377C191.07 26.9874 190.685 25.9424 189.913 25.2029C189.141 24.4634 187.968 24.0937 186.392 24.0937H181.907V32.5818H186.392Z" fill="#181818"/>
<path d="M151.758 51.6317C148.575 51.6317 145.649 50.8922 142.98 49.4132C140.344 47.9342 138.238 45.8765 136.663 43.24C135.119 40.5714 134.348 37.5813 134.348 34.2696C134.348 30.958 135.119 27.9839 136.663 25.3475C138.238 22.711 140.344 20.6533 142.98 19.1743C145.649 17.6953 148.575 16.9558 151.758 16.9558C154.941 16.9558 157.851 17.6953 160.487 19.1743C163.156 20.6533 165.246 22.711 166.757 25.3475C168.3 27.9839 169.072 30.958 169.072 34.2696C169.072 37.5813 168.3 40.5714 166.757 43.24C165.214 45.8765 163.124 47.9342 160.487 49.4132C157.851 50.8922 154.941 51.6317 151.758 51.6317ZM151.758 44.1081C154.459 44.1081 156.613 43.2079 158.22 41.4074C159.86 39.6069 160.68 37.2276 160.68 34.2696C160.68 31.2795 159.86 28.9003 158.22 27.1319C156.613 25.3314 154.459 24.4311 151.758 24.4311C149.025 24.4311 146.839 25.3153 145.199 27.0837C143.591 28.852 142.788 31.2474 142.788 34.2696C142.788 37.2598 143.591 39.6551 145.199 41.4556C146.839 43.224 149.025 44.1081 151.758 44.1081Z" fill="#181818"/>
<path d="M131.606 17.4382V24.0455H122.635V51.2942H114.388V24.0455H105.418V17.4382H131.606Z" fill="#181818"/>
<rect y="26.0559" width="17.5547" height="17.5547" fill="#181818"/>
<rect x="17.5547" y="52.3328" width="52.3329" height="17.4443" fill="#181818"/>
<path d="M69.8877 17.4443H52.4336V43.6104H34.9893V17.4443H17.5547V0H69.8877V17.4443Z" fill="#3733FF"/>
<rect x="70" y="26.0559" width="17.4443" height="17.4443" fill="#181818"/>
</svg>
